Coordinates
version=1
nRows=14
nColumns=24
inDegrees=yes

Units are S.I. units (second, meters, Newtons, ...)
Angles are in degrees.

endheader
time	pelvis_tilt	pelvis_list	pelvis_rotation	pelvis_tx	pelvis_ty	pelvis_tz	hip_flexion_r	hip_adduction_r	hip_rotation_r	knee_angle_r	ankle_angle_r	subtalar_angle_r	mtp_angle_r	hip_flexion_l	hip_adduction_l	hip_rotation_l	knee_angle_l	ankle_angle_l	subtalar_angle_l	mtp_angle_l	lumbar_extension	lumbar_bending	lumbar_rotation
      8.14000000	      0.50095042	      4.70448152	      1.36334539	     -2.04606530	      0.89391864	      0.18934973	     17.03687130	     -7.09894362	     -8.38877557	    -65.82761856	     -4.40029526	    -10.58425177	      0.00000000	      6.06470515	     11.04524222	      5.30297978	    -10.11933101	      7.96268792	    -11.68321684	      0.00000000	    -23.13367149	     -5.70854493	    -13.55263629
      8.15000000	      0.39521523	      4.46824360	      1.43946038	     -2.03632703	      0.89478196	      0.18878762	     18.28822470	     -6.89333184	     -8.73719745	    -65.15494467	     -3.21226616	    -10.25601607	      0.00000000	      5.11410983	     10.77045137	      5.41600114	     -9.45936887	      8.34323190	    -11.36258798	      0.00000000	    -23.07206182	     -5.49568398	    -13.39760097
      8.16000000	      0.28866271	      4.35788800	      1.63315082	     -2.02661000	      0.89539147	      0.18813351	     19.45575753	     -6.83656743	     -9.11250182	    -64.29413058	     -1.65874716	     -9.09578174	      0.00000000	      4.19748906	     10.63354107	      5.35562197	     -8.85788049	      8.77200940	    -10.84623046	      0.00000000	    -23.03607883	     -5.40748065	    -13.49880431
      8.17000000	      0.17930455	      4.25755925	      1.79805880	     -2.01686103	      0.89580893	      0.18761656	     20.56694824	     -6.73217409	     -9.39368045	    -63.20144746	     -0.08404295	     -7.49900787	      0.00000000	      3.26293412	     10.49196358	      5.33753822	     -8.21747225	      9.21486936	    -10.33154414	      0.00000000	    -22.98838999	     -5.35476337	    -13.53508487
      8.18000000	      0.07261862	      4.20050518	      1.99902281	     -2.00707219	      0.89603213	      0.18708501	     21.59472383	     -6.65678285	     -9.63296364	    -61.89286482	      1.59720108	     -5.39550898	      0.00000000	      2.32120642	     10.39461484	      5.31540043	     -7.57376654	      9.64646053	     -9.83155412	      0.00000000	    -22.94354797	     -5.34501907	    -13.60096381
      8.19000000	     -0.00468316	      4.18231181	      2.20097831	     -1.99730056	      0.89610740	      0.18665698	     22.51340327	     -6.56143554	     -9.74218679	    -60.35850425	      3.33886603	     -2.93046099	      0.00000000	      1.36041758	     10.32511804	      5.27456614	     -6.95320311	     10.11719955	     -9.24926892	      0.00000000	    -22.95513415	     -5.38443634	    -13.77458423
      8.20000000	     -0.10172433	      4.18602439	      2.44935934	     -1.98747170	      0.89598075	      0.18613528	     23.35497433	     -6.49471787	     -9.83423848	    -58.59616021	      5.03828728	     -0.25076128	      0.00000000	      0.42399340	     10.28479901	      5.28270983	     -6.34831603	     10.56153797	     -8.75291645	      0.00000000	    -22.93370039	     -5.42277479	    -13.93080958
      8.21000000	     -0.18663463	      4.20417975	      2.72336832	     -1.97765887	      0.89572712	      0.18564132	     24.08188559	     -6.40673419	     -9.83325604	    -56.58715793	      6.62140096	      2.45930828	      0.00000000	     -0.49815125	     10.25372548	      5.31941810	     -5.79627743	     11.00987414	     -8.26201138	      0.00000000	    -22.94644232	     -5.46804070	    -14.15943510
      8.22000000	     -0.19844267	      4.18699190	      3.04337867	     -1.96781881	      0.89548676	      0.18513139	     24.59404764	     -6.25719324	     -9.78859864	    -54.28942066	      7.97602567	      5.00059457	      0.00000000	     -1.46442388	     10.17574827	      5.33330513	     -5.31287084	     11.51563677	     -7.68896317	      0.00000000	    -23.06388187	     -5.44190864	    -14.44817503
      8.23000000	     -0.34613340	      4.22292737	      3.36241178	     -1.95798814	      0.89485819	      0.18462856	     25.17208640	     -6.14725042	     -9.62872677	    -51.79872233	      9.15377728	      7.25244062	      0.00000000	     -2.25762122	     10.16565217	      5.50550034	     -4.88422439	     11.95108900	     -7.39096963	      0.00000000	    -23.01225260	     -5.49027165	    -14.69549616
      8.24000000	     -0.47614187	      4.23149835	      3.73393329	     -1.94815611	      0.89417266	      0.18407379	     25.59113793	     -6.00357758	     -9.42501829	    -49.03689821	     10.05613873	      9.08537488	      0.00000000	     -3.03368890	     10.12300158	      5.74438095	     -4.52658258	     12.39161435	     -7.13921612	      0.00000000	    -22.99159198	     -5.48188494	    -14.99080323
      8.25000000	     -0.57917281	      4.20916180	      4.15640485	     -1.93834131	      0.89344819	      0.18351739	     25.83501457	     -5.81760200	     -9.16482796	    -46.00475247	     10.68959564	     10.39957227	      0.00000000	     -3.79741102	     10.03777492	      6.07854164	     -4.24725289	     12.84269056	     -6.96551856	      0.00000000	    -23.03528352	     -5.41541754	    -15.33212400
      8.26000000	     -0.79704722	      4.17598462	      4.52889860	     -1.92853871	      0.89244403	      0.18299610	     26.09476262	     -5.58435621	     -8.69394583	    -42.74271318	     11.03492730	     11.17067896	      0.00000000	     -4.38710668	      9.95958172	      6.41476512	     -4.05054790	     13.29584237	     -6.93673756	      0.00000000	    -22.92086199	     -5.33819775	    -15.54783829
      8.27000000	     -0.82479767	      4.12163559	      5.04675441	     -1.91872239	      0.89167108	      0.18239325	     25.94771514	     -5.37019328	     -8.30505418	    -39.18255370	     11.16155745	     11.25598543	      0.00000000	     -5.18390627	      9.81454887	      7.02318894	     -3.86983977	     13.70238483	     -7.01642659	      0.00000000	    -23.08188464	     -5.19460270	    -15.99120605
